<?xml version="1.0" standalone="no"?>
<!DOCTYPE svg PUBLIC "-//W3C//DTD SVG 20010904//EN"
 "http://www.w3.org/TR/2001/REC-SVG-20010904/DTD/svg10.dtd">
<svg version="1.0" xmlns="http://www.w3.org/2000/svg"
 width="1080.000000pt" height="480.000000pt" viewBox="0 0 1080.000000 480.000000"
 preserveAspectRatio="xMidYMid meet">

<g transform="translate(0.000000,480.000000) scale(0.100000,-0.100000)"
fill="#000000" stroke="none">
<path d="M4397 3854 c-4 -4 -7 -61 -7 -126 0 -111 1 -118 20 -118 18 0 20 7
20 55 l0 55 65 0 65 0 0 -55 c0 -42 3 -55 15 -55 13 0 15 21 15 125 0 104 -2
125 -15 125 -12 0 -15 -13 -15 -55 l0 -55 -64 0 -65 0 -3 52 c-3 48 -15 68
-31 52z"/>
<path d="M4660 3735 l0 -125 75 0 c60 0 75 3 75 15 0 12 -13 15 -60 15 l-60 0
0 39 0 40 45 3 c61 4 62 22 3 26 l-48 3 0 40 0 39 61 0 c44 0 60 3 57 13 -3 8
-30 13 -76 15 l-72 3 0 -126z"/>
<path d="M4857 3854 c-4 -4 -7 -61 -7 -126 l0 -118 70 0 c56 0 70 3 70 15 0
11 -12 15 -50 15 l-49 0 -3 107 c-3 98 -11 127 -31 107z"/>
<path d="M5037 3853 c-4 -3 -7 -60 -7 -125 l0 -118 70 0 c56 0 70 3 70 15 0
12 -13 15 -55 15 l-55 0 0 110 c0 101 -5 122 -23 103z"/>
<path d="M5253 3840 c-58 -35 -77 -98 -49 -165 17 -41 60 -65 117 -65 33 0 47
6 75 34 29 29 34 41 34 80 0 61 -23 104 -65 122 -46 19 -74 18 -112 -6z m110
-30 c47 -37 44 -135 -4 -160 -31 -17 -81 -11 -106 12 -33 31 -33 109 2 143 30
31 73 32 108 5z"/>
<path d="M5650 3735 c0 -104 2 -125 15 -125 13 0 15 21 15 125 0 104 -2 125
-15 125 -13 0 -15 -21 -15 -125z"/>
<path d="M5896 3852 c-3 -6 -38 -91 -93 -229 -3 -7 2 -13 11 -13 10 0 23 15
32 35 14 34 16 35 68 35 53 0 55 -1 66 -35 8 -23 18 -35 30 -35 16 0 12 15
-32 125 -45 113 -66 142 -82 117z m22 -150 c-22 -2 -42 -1 -44 1 -3 2 5 30 18
61 l21 58 22 -59 22 -58 -39 -3z"/>
<path d="M6067 3854 c-4 -4 -7 -61 -7 -126 0 -98 3 -118 15 -118 12 0 15 18
15 98 l1 97 42 -77 c23 -44 49 -78 57 -78 9 0 32 33 55 76 l40 77 3 -97 c2
-77 6 -96 18 -96 12 0 14 19 12 123 -4 151 -14 157 -78 40 -25 -45 -47 -82
-50 -82 -3 0 -25 36 -50 81 -44 79 -59 96 -73 82z"/>
<path d="M5474 3639 c-3 -6 -1 -16 4 -21 8 -8 8 -17 1 -30 -7 -12 -6 -18 1
-18 15 0 34 46 27 64 -7 18 -23 21 -33 5z"/>
<path d="M3398 3306 c-98 -35 -182 -109 -222 -195 -31 -68 -30 -199 3 -260 35
-66 104 -134 168 -166 99 -49 275 -44 348 9 19 14 19 15 -10 75 -22 46 -33 60
-44 55 -58 -24 -110 -34 -151 -28 -126 18 -206 130 -170 240 25 76 73 117 157
135 50 10 104 1 169 -27 5 -2 23 23 39 57 29 60 29 61 10 75 -55 41 -220 57
-297 30z"/>
<path d="M5220 3297 c-24 -12 -57 -40 -74 -61 -28 -34 -31 -45 -31 -106 0 -61
3 -72 31 -107 20 -25 60 -53 115 -81 117 -59 140 -91 99 -132 -32 -32 -111
-27 -179 10 -62 34 -61 35 -105 -42 l-26 -47 22 -15 c73 -48 122 -61 223 -61
88 0 105 3 145 25 54 31 87 77 96 137 15 100 -35 164 -182 234 -104 50 -124
78 -81 115 34 29 60 30 132 3 31 -12 58 -19 59 -17 2 1 15 27 30 55 l26 52
-24 17 c-74 48 -206 58 -276 21z"/>
<path d="M6003 3304 c-57 -21 -139 -96 -169 -155 -48 -96 -48 -233 1 -328 32
-64 113 -135 177 -157 69 -22 178 -16 243 16 105 51 155 134 155 260 l0 80
-150 0 -150 0 0 -55 0 -55 75 0 c61 0 75 -3 75 -15 0 -26 -29 -74 -52 -86
-125 -67 -250 22 -250 176 0 173 157 263 273 158 22 -20 41 -34 42 -32 1 3 22
26 46 52 l45 47 -25 26 c-13 14 -46 38 -74 52 -63 32 -195 41 -262 16z"/>
<path d="M2186 3302 c-7 -12 -256 -630 -256 -636 0 -3 35 -6 78 -6 l78 0 23
65 23 66 125 -3 125 -3 23 -60 22 -60 80 -3 80 -3 -131 326 -130 325 -68 0
c-37 0 -69 -4 -72 -8z m110 -295 l31 -82 -65 -3 c-35 -2 -67 -1 -70 2 -3 3 10
44 28 91 18 47 36 83 39 79 3 -3 20 -42 37 -87z"/>
<path d="M2610 2985 l0 -325 75 0 74 0 3 126 3 126 95 -124 95 -123 93 -3 c50
-1 92 0 92 3 0 3 -48 63 -106 133 -96 114 -105 127 -88 137 44 24 93 83 104
125 17 61 0 143 -37 183 -53 56 -92 67 -255 67 l-148 0 0 -325z m265 180 c26
-26 33 -72 15 -105 -11 -21 -60 -40 -101 -40 l-29 0 0 85 0 85 45 0 c35 0 52
-6 70 -25z"/>
<path d="M3777 3303 c-4 -3 -7 -150 -7 -325 l0 -318 75 0 75 0 0 130 0 130
105 0 105 0 0 -130 0 -130 75 0 75 0 0 325 0 326 -72 -3 -73 -3 -3 -128 -3
-128 -102 3 -102 3 -3 128 -3 127 -68 0 c-37 0 -71 -3 -74 -7z"/>
<path d="M4380 2985 l0 -325 70 0 70 0 0 325 0 325 -70 0 -70 0 0 -325z"/>
<path d="M4620 2985 l0 -325 185 0 185 0 0 65 0 65 -110 0 -110 0 0 65 0 65
105 0 105 0 0 65 0 65 -105 0 -105 0 0 65 0 65 110 0 110 0 0 65 0 65 -185 0
-185 0 0 -325z"/>
<path d="M6472 3058 c3 -248 3 -254 28 -298 43 -76 113 -110 229 -110 83 0
132 15 181 57 62 54 70 94 70 370 l0 233 -75 0 -75 0 0 -215 c0 -248 -6 -275
-63 -294 -27 -9 -46 -9 -77 -1 -65 17 -70 39 -70 295 l0 215 -76 0 -76 0 4
-252z"/>
<path d="M7070 2985 l0 -325 70 0 69 0 3 127 3 128 99 -128 99 -127 156 2 155
3 24 63 24 62 123 0 123 0 24 -65 23 -65 77 0 c43 0 78 3 78 8 0 4 -57 149
-128 322 l-127 315 -70 3 -70 3 -122 -303 c-67 -166 -125 -303 -130 -305 -7
-2 -73 74 -171 198 l-23 29 23 9 c92 35 135 165 89 267 -37 82 -97 104 -282
104 l-139 0 0 -325z m254 184 c21 -16 26 -29 26 -63 0 -56 -23 -77 -87 -79
l-48 -2 -3 83 -3 82 44 0 c30 0 53 -7 71 -21z m605 -150 c17 -44 31 -85 31
-90 0 -5 -31 -9 -69 -9 l-69 0 27 73 c15 39 31 80 34 90 4 9 8 17 11 17 2 0
18 -36 35 -81z"/>
<path d="M8192 3297 c2 -8 62 -154 133 -325 l130 -312 61 0 c50 0 63 3 67 18
3 9 62 152 131 316 69 165 126 303 126 308 0 5 -37 8 -81 6 l-81 -3 -79 -204
c-43 -112 -80 -205 -82 -207 -2 -3 -40 89 -84 203 l-80 208 -82 3 c-66 2 -82
0 -79 -11z"/>
<path d="M4955 1988 c-60 -34 -40 -95 42 -127 40 -16 49 -38 26 -63 -15 -16
-26 -19 -61 -14 -32 4 -43 3 -40 -7 3 -6 24 -13 47 -15 55 -4 91 18 91 57 0
32 -20 53 -73 75 -33 13 -38 19 -35 43 3 26 6 28 51 28 49 0 65 18 25 29 -33
8 -50 7 -73 -6z"/>
<path d="M5563 1993 c-12 -2 -34 -18 -48 -34 -20 -25 -25 -41 -25 -86 0 -47 4
-58 30 -84 26 -26 36 -30 77 -27 25 2 48 8 50 15 3 8 -8 10 -34 6 -71 -9 -114
51 -92 131 12 43 37 58 89 55 49 -4 62 7 26 21 -28 10 -34 11 -73 3z"/>
<path d="M6995 1986 c-38 -16 -55 -53 -55 -117 0 -42 5 -55 29 -80 53 -52 147
-34 170 33 16 46 13 89 -9 126 -30 50 -78 63 -135 38z m104 -42 c31 -39 29
-107 -4 -139 -64 -65 -159 19 -125 111 14 38 37 54 76 54 23 0 39 -8 53 -26z"/>
<path d="M3050 1875 c0 -96 3 -115 15 -115 12 0 15 19 15 115 0 96 -3 115 -15
115 -12 0 -15 -19 -15 -115z"/>
<path d="M3248 1893 c-52 -136 -52 -133 -39 -133 7 0 19 16 27 35 14 33 17 35
63 35 48 0 50 -1 61 -35 6 -19 18 -35 26 -35 19 0 19 -1 -30 120 -23 59 -48
106 -56 108 -11 2 -26 -27 -52 -95z m68 22 c20 -49 18 -55 -21 -55 l-34 0 17
45 c9 25 18 45 20 45 2 0 10 -16 18 -35z"/>
<path d="M3432 1878 c2 -76 7 -113 15 -115 9 -3 13 22 15 93 l3 98 36 -94 c20
-52 42 -95 48 -95 7 0 30 45 52 100 l38 100 1 -103 c0 -78 3 -103 13 -100 8 3
13 38 15 116 l3 112 -25 0 c-21 0 -28 -11 -57 -90 -18 -49 -36 -90 -39 -90 -3
0 -20 41 -39 90 -29 79 -36 90 -58 90 l-24 0 3 -112z"/>
<path d="M3831 1884 c-43 -112 -46 -124 -32 -124 5 0 15 16 22 35 13 34 15 35
64 35 49 0 51 -1 64 -35 7 -19 19 -35 27 -35 15 0 16 -4 -51 163 -15 37 -33
67 -40 67 -7 0 -31 -47 -54 -106z m83 -2 c7 -20 4 -22 -29 -22 -25 0 -35 4
-31 13 2 6 10 29 17 50 l12 38 12 -29 c7 -15 16 -38 19 -50z"/>
<path d="M4100 1875 c0 -96 3 -115 15 -115 11 0 15 12 15 50 l0 50 50 0 c64 0
66 18 3 22 l-48 3 -3 43 -3 42 50 0 c28 0 51 5 51 10 0 6 -28 10 -65 10 l-65
0 0 -115z"/>
<path d="M4270 1900 c0 -83 2 -93 25 -115 18 -19 35 -25 65 -25 30 0 47 6 65
25 23 22 25 32 25 115 0 72 -3 90 -15 90 -11 0 -15 -19 -17 -92 -3 -89 -4 -93
-30 -108 -25 -13 -31 -13 -55 0 -27 15 -28 19 -31 108 -2 73 -6 92 -17 92 -12
0 -15 -18 -15 -90z"/>
<path d="M4510 1875 l0 -115 66 0 c48 0 65 3 62 13 -3 6 -25 13 -51 15 l-47 3
0 100 c0 81 -3 99 -15 99 -12 0 -15 -19 -15 -115z"/>
<path d="M4680 1875 l0 -115 66 0 c48 0 65 3 62 13 -3 6 -25 13 -51 15 l-47 3
0 100 c0 81 -3 99 -15 99 -12 0 -15 -19 -15 -115z"/>
<path d="M5080 1980 c0 -5 18 -10 40 -10 l40 0 0 -105 c0 -63 4 -105 10 -105
6 0 10 42 10 105 l0 105 40 0 c22 0 40 5 40 10 0 6 -37 10 -90 10 -53 0 -90
-4 -90 -10z"/>
<path d="M5341 1968 c-5 -13 -25 -63 -45 -112 -20 -50 -36 -91 -36 -93 0 -2 6
-3 14 -3 8 0 20 16 26 35 11 33 14 35 59 35 44 0 48 -2 64 -35 15 -32 45 -51
35 -22 -45 127 -84 217 -95 217 -7 0 -17 -10 -22 -22z m42 -65 l17 -43 -35 0
c-19 0 -35 4 -35 9 0 12 31 84 34 80 1 -2 10 -23 19 -46z"/>
<path d="M5700 1875 c0 -94 3 -115 14 -115 11 0 16 15 18 52 2 28 8 53 14 55
5 2 28 -21 50 -52 21 -30 45 -55 52 -55 18 0 16 7 -28 67 -22 31 -40 61 -40
67 0 6 19 30 42 53 24 24 36 43 28 43 -8 0 -38 -23 -67 -52 l-53 -52 0 52 c0
40 -4 52 -15 52 -12 0 -15 -19 -15 -115z"/>
<path d="M5982 1878 l3 -113 62 0 c54 0 66 4 89 26 49 49 40 159 -15 189 -11
5 -47 10 -81 10 l-61 0 3 -112z m133 67 c18 -17 25 -35 25 -64 0 -55 -32 -91
-85 -94 l-40 -2 -3 93 -3 92 41 0 c30 0 47 -7 65 -25z"/>
<path d="M6222 1878 l3 -113 63 -3 c36 -2 62 1 62 7 0 5 -21 11 -47 13 l-48 3
-3 43 -3 42 50 0 c64 0 67 18 4 22 -48 3 -48 3 -51 41 l-3 37 50 0 c28 0 51 5
51 10 0 6 -28 10 -65 10 l-66 0 3 -112z"/>
<path d="M6414 1875 c28 -80 45 -115 55 -113 8 2 31 49 53 108 42 118 43 120
25 120 -6 0 -22 -29 -34 -64 -48 -135 -41 -133 -77 -31 -20 54 -39 91 -48 93
-12 2 -6 -24 26 -113z"/>
<path d="M6600 1875 l0 -115 65 0 c75 0 89 17 18 22 l-48 3 -3 43 -3 42 45 0
c25 0 46 5 46 10 0 6 -20 10 -45 10 l-45 0 0 40 0 40 50 0 c28 0 50 5 50 10 0
6 -28 10 -65 10 l-65 0 0 -115z"/>
<path d="M6780 1875 l0 -115 65 0 c51 0 65 3 65 15 0 11 -12 15 -50 15 l-50 0
0 100 c0 82 -3 100 -15 100 -12 0 -15 -19 -15 -115z"/>
<path d="M7200 1875 c0 -96 3 -115 15 -115 11 0 15 12 15 44 l0 43 42 6 c71 9
102 73 58 117 -15 15 -33 20 -75 20 l-55 0 0 -115z m101 85 c21 -12 25 -50 7
-68 -7 -7 -27 -12 -45 -12 -32 0 -33 1 -33 45 0 42 2 45 26 45 14 0 34 -5 45
-10z"/>
<path d="M7400 1875 l0 -115 65 0 c37 0 65 4 65 10 0 6 -22 10 -50 10 l-50 0
0 45 0 45 45 0 c25 0 45 5 45 10 0 6 -20 10 -45 10 l-45 0 0 40 0 40 50 0 c28
0 50 5 50 10 0 6 -28 10 -65 10 l-65 0 0 -115z"/>
<path d="M7580 1875 c0 -96 3 -115 15 -115 11 0 15 12 15 50 0 45 2 50 23 50
17 0 30 -13 52 -50 16 -27 35 -50 42 -50 19 0 16 11 -12 52 -30 45 -31 50 -5
73 11 10 20 29 20 42 0 41 -33 63 -95 63 l-55 0 0 -115z m108 83 c33 -33 2
-78 -52 -78 -24 0 -26 3 -26 45 0 44 1 45 33 45 18 0 38 -5 45 -12z"/>
</g>
</svg>
